<mxfile host="app.diagrams.net" modified="2023-09-28T06:28:32.437Z" agent="Mozilla/5.0 (Windows NT 10.0; Win64; x64) AppleWebKit/537.36 (KHTML, like Gecko) Chrome/117.0.0.0 Safari/537.36" etag="XNNXDZdtBDh7xOjO8cHv" version="21.8.2" type="device">
  <diagram name="Page-1" id="0783ab3e-0a74-02c8-0abd-f7b4e66b4bec">
    <mxGraphModel dx="880" dy="-616" grid="1" gridSize="10" guides="1" tooltips="1" connect="1" arrows="1" fold="1" page="1" pageScale="1" pageWidth="850" pageHeight="1100" background="none" math="0" shadow="0">
      <root>
        <mxCell id="0" />
        <mxCell id="1" parent="0" />
        <mxCell id="3HCPjBEFk6575z2NG5k7-16" value="" style="shape=table;startSize=0;container=1;collapsible=0;childLayout=tableLayout;movable=1;resizable=1;rotatable=1;deletable=1;editable=1;locked=0;connectable=1;strokeWidth=25;" parent="1" vertex="1">
          <mxGeometry x="680" y="1730" width="5460" height="9200" as="geometry" />
        </mxCell>
        <mxCell id="3HCPjBEFk6575z2NG5k7-17" value="" style="shape=tableRow;horizontal=0;startSize=0;swimlaneHead=0;swimlaneBody=0;strokeColor=#3700CC;top=0;left=0;bottom=0;right=0;collapsible=0;dropTarget=0;fillColor=#6a00ff;points=[[0,0.5],[1,0.5]];portConstraint=eastwest;fontColor=#ffffff;" parent="3HCPjBEFk6575z2NG5k7-16" vertex="1">
          <mxGeometry width="5460" height="380" as="geometry" />
        </mxCell>
        <mxCell id="3HCPjBEFk6575z2NG5k7-18" value="&lt;font style=&quot;font-size: 77px;&quot;&gt;&lt;b&gt;User&lt;/b&gt;&lt;/font&gt;" style="shape=partialRectangle;html=1;whiteSpace=wrap;connectable=0;strokeColor=#82b366;overflow=hidden;fillColor=#d5e8d4;top=0;left=0;bottom=0;right=0;pointerEvents=1;strokeWidth=1;" parent="3HCPjBEFk6575z2NG5k7-17" vertex="1">
          <mxGeometry width="1572" height="380" as="geometry">
            <mxRectangle width="1572" height="380" as="alternateBounds" />
          </mxGeometry>
        </mxCell>
        <mxCell id="3HCPjBEFk6575z2NG5k7-19" value="&lt;b&gt;&lt;font style=&quot;font-size: 77px;&quot;&gt;System&lt;/font&gt;&lt;/b&gt;" style="shape=partialRectangle;html=1;whiteSpace=wrap;connectable=0;strokeColor=#82b366;overflow=hidden;fillColor=#d5e8d4;top=0;left=0;bottom=0;right=0;pointerEvents=1;shadow=0;" parent="3HCPjBEFk6575z2NG5k7-17" vertex="1">
          <mxGeometry x="1572" width="3888" height="380" as="geometry">
            <mxRectangle width="3888" height="380" as="alternateBounds" />
          </mxGeometry>
        </mxCell>
        <mxCell id="3HCPjBEFk6575z2NG5k7-24" value="" style="shape=tableRow;horizontal=0;startSize=0;swimlaneHead=0;swimlaneBody=0;strokeColor=#2D7600;top=0;left=0;bottom=0;right=0;collapsible=0;dropTarget=0;fillColor=#60a917;points=[[0,0.5],[1,0.5]];portConstraint=eastwest;fontColor=#ffffff;" parent="3HCPjBEFk6575z2NG5k7-16" vertex="1">
          <mxGeometry y="380" width="5460" height="259" as="geometry" />
        </mxCell>
        <mxCell id="3HCPjBEFk6575z2NG5k7-25" value="&lt;b&gt;&lt;font style=&quot;font-size: 77px;&quot;&gt;Accountant&lt;/font&gt;&lt;/b&gt;" style="shape=partialRectangle;html=1;whiteSpace=wrap;connectable=1;strokeColor=#b85450;overflow=hidden;fillColor=#f8cecc;top=0;left=0;bottom=0;right=0;pointerEvents=1;movable=1;resizable=1;rotatable=1;deletable=1;editable=1;locked=0;" parent="3HCPjBEFk6575z2NG5k7-24" vertex="1">
          <mxGeometry width="1572" height="259" as="geometry">
            <mxRectangle width="1572" height="259" as="alternateBounds" />
          </mxGeometry>
        </mxCell>
        <mxCell id="3HCPjBEFk6575z2NG5k7-26" value="&lt;font style=&quot;font-size: 77px;&quot;&gt;&lt;b&gt;Stocks Portfolio Management System&lt;/b&gt;&lt;/font&gt;" style="shape=partialRectangle;html=1;whiteSpace=wrap;connectable=0;strokeColor=#9673a6;overflow=hidden;fillColor=#e1d5e7;top=0;left=0;bottom=0;right=0;pointerEvents=1;" parent="3HCPjBEFk6575z2NG5k7-24" vertex="1">
          <mxGeometry x="1572" width="3888" height="259" as="geometry">
            <mxRectangle width="3888" height="259" as="alternateBounds" />
          </mxGeometry>
        </mxCell>
        <mxCell id="3HCPjBEFk6575z2NG5k7-37" style="shape=tableRow;horizontal=0;startSize=0;swimlaneHead=0;swimlaneBody=0;strokeColor=inherit;top=0;left=0;bottom=0;right=0;collapsible=0;dropTarget=0;fillColor=none;points=[[0,0.5],[1,0.5]];portConstraint=eastwest;strokeWidth=22;" parent="3HCPjBEFk6575z2NG5k7-16" vertex="1">
          <mxGeometry y="639" width="5460" height="8561" as="geometry" />
        </mxCell>
        <mxCell id="3HCPjBEFk6575z2NG5k7-38" style="shape=partialRectangle;html=1;whiteSpace=wrap;connectable=1;strokeColor=inherit;overflow=hidden;fillColor=none;top=0;left=0;bottom=0;right=0;pointerEvents=1;movable=1;resizable=1;rotatable=1;deletable=1;editable=1;locked=0;" parent="3HCPjBEFk6575z2NG5k7-37" vertex="1">
          <mxGeometry width="1572" height="8561" as="geometry">
            <mxRectangle width="1572" height="8561" as="alternateBounds" />
          </mxGeometry>
        </mxCell>
        <mxCell id="3HCPjBEFk6575z2NG5k7-39" style="shape=partialRectangle;html=1;whiteSpace=wrap;connectable=0;strokeColor=inherit;overflow=hidden;fillColor=none;top=0;left=0;bottom=0;right=0;pointerEvents=1;" parent="3HCPjBEFk6575z2NG5k7-37" vertex="1">
          <mxGeometry x="1572" width="3888" height="8561" as="geometry">
            <mxRectangle width="3888" height="8561" as="alternateBounds" />
          </mxGeometry>
        </mxCell>
        <mxCell id="53uwz5swAD4npwzSxtdd-73" value="" style="rhombus;whiteSpace=wrap;html=1;fillColor=#ffffc0;strokeColor=#ff0000;fontColor=#000000;rounded=1;arcSize=40;" vertex="1" parent="3HCPjBEFk6575z2NG5k7-37">
          <mxGeometry x="5460" width="NaN" height="8561" as="geometry">
            <mxRectangle width="NaN" height="8561" as="alternateBounds" />
          </mxGeometry>
        </mxCell>
        <mxCell id="53uwz5swAD4npwzSxtdd-3" value="" style="group" vertex="1" connectable="0" parent="1">
          <mxGeometry x="1510" y="2570" width="200" height="510" as="geometry" />
        </mxCell>
        <mxCell id="53uwz5swAD4npwzSxtdd-1" value="" style="ellipse;html=1;shape=startState;fillColor=#000000;strokeColor=#ff0000;" vertex="1" parent="53uwz5swAD4npwzSxtdd-3">
          <mxGeometry width="200" height="170" as="geometry" />
        </mxCell>
        <mxCell id="53uwz5swAD4npwzSxtdd-2" value="" style="edgeStyle=orthogonalEdgeStyle;html=1;verticalAlign=bottom;endArrow=open;endSize=8;strokeColor=#ff0000;rounded=0;strokeWidth=10;" edge="1" source="53uwz5swAD4npwzSxtdd-1" parent="53uwz5swAD4npwzSxtdd-3">
          <mxGeometry relative="1" as="geometry">
            <mxPoint x="100" y="510" as="targetPoint" />
          </mxGeometry>
        </mxCell>
        <mxCell id="53uwz5swAD4npwzSxtdd-38" style="edgeStyle=orthogonalEdgeStyle;rounded=0;orthogonalLoop=1;jettySize=auto;html=1;exitX=1;exitY=0.5;exitDx=0;exitDy=0;entryX=0.5;entryY=0;entryDx=0;entryDy=0;strokeWidth=10;jumpStyle=arc;jumpSize=29;" edge="1" parent="1" source="53uwz5swAD4npwzSxtdd-21" target="53uwz5swAD4npwzSxtdd-37">
          <mxGeometry relative="1" as="geometry">
            <Array as="points">
              <mxPoint x="2630" y="3220" />
              <mxPoint x="2630" y="2540" />
              <mxPoint x="3675" y="2540" />
            </Array>
          </mxGeometry>
        </mxCell>
        <mxCell id="53uwz5swAD4npwzSxtdd-21" value="&lt;font style=&quot;font-size: 60px;&quot;&gt;Login System&lt;/font&gt;" style="rounded=1;whiteSpace=wrap;html=1;arcSize=40;fontColor=#000000;fillColor=#ffffc0;strokeColor=#ff0000;" vertex="1" parent="1">
          <mxGeometry x="1190" y="3080" width="870" height="280" as="geometry" />
        </mxCell>
        <mxCell id="53uwz5swAD4npwzSxtdd-44" style="edgeStyle=orthogonalEdgeStyle;rounded=0;orthogonalLoop=1;jettySize=auto;html=1;exitX=0;exitY=0.5;exitDx=0;exitDy=0;strokeWidth=10;jumpStyle=arc;jumpSize=29;" edge="1" parent="1" source="53uwz5swAD4npwzSxtdd-25" target="53uwz5swAD4npwzSxtdd-21">
          <mxGeometry relative="1" as="geometry" />
        </mxCell>
        <mxCell id="53uwz5swAD4npwzSxtdd-25" value="&lt;font style=&quot;font-size: 60px;&quot;&gt;Displaye Error Message &quot;Login Again&quot;&lt;/font&gt;" style="rounded=1;whiteSpace=wrap;html=1;arcSize=40;fontColor=#000000;fillColor=#ffffc0;strokeColor=#ff0000;" vertex="1" parent="1">
          <mxGeometry x="2460" y="4290" width="870" height="280" as="geometry" />
        </mxCell>
        <mxCell id="53uwz5swAD4npwzSxtdd-26" value="&lt;font style=&quot;font-size: 60px;&quot;&gt;Create Supplier Report&lt;/font&gt;" style="rounded=1;whiteSpace=wrap;html=1;arcSize=40;fontColor=#000000;fillColor=#ffffc0;strokeColor=#ff0000;" vertex="1" parent="1">
          <mxGeometry x="4100" y="7210" width="870" height="280" as="geometry" />
        </mxCell>
        <mxCell id="53uwz5swAD4npwzSxtdd-48" style="edgeStyle=orthogonalEdgeStyle;rounded=0;orthogonalLoop=1;jettySize=auto;html=1;entryX=0.5;entryY=0;entryDx=0;entryDy=0;strokeWidth=10;jumpStyle=arc;jumpSize=29;" edge="1" parent="1" source="53uwz5swAD4npwzSxtdd-27" target="53uwz5swAD4npwzSxtdd-46">
          <mxGeometry relative="1" as="geometry">
            <Array as="points">
              <mxPoint x="2455" y="5380" />
              <mxPoint x="2455" y="5010" />
              <mxPoint x="3575" y="5010" />
            </Array>
          </mxGeometry>
        </mxCell>
        <mxCell id="53uwz5swAD4npwzSxtdd-27" value="&lt;font style=&quot;font-size: 60px;&quot;&gt;Select Activity&lt;/font&gt;" style="rounded=1;whiteSpace=wrap;html=1;arcSize=40;fontColor=#000000;fillColor=#ffffc0;strokeColor=#ff0000;" vertex="1" parent="1">
          <mxGeometry x="940" y="5240" width="870" height="280" as="geometry" />
        </mxCell>
        <mxCell id="53uwz5swAD4npwzSxtdd-28" value="&lt;font style=&quot;font-size: 60px;&quot;&gt;Create Accounting Report&lt;/font&gt;" style="rounded=1;whiteSpace=wrap;html=1;arcSize=40;fontColor=#000000;fillColor=#ffffc0;strokeColor=#ff0000;" vertex="1" parent="1">
          <mxGeometry x="4100" y="6280" width="870" height="280" as="geometry" />
        </mxCell>
        <mxCell id="53uwz5swAD4npwzSxtdd-74" value="" style="edgeStyle=orthogonalEdgeStyle;rounded=0;orthogonalLoop=1;jettySize=auto;html=1;" edge="1" parent="1" source="53uwz5swAD4npwzSxtdd-29" target="53uwz5swAD4npwzSxtdd-73">
          <mxGeometry relative="1" as="geometry" />
        </mxCell>
        <mxCell id="53uwz5swAD4npwzSxtdd-29" value="&lt;font style=&quot;font-size: 60px;&quot;&gt;Manage Expencess&lt;/font&gt;" style="rounded=1;whiteSpace=wrap;html=1;arcSize=40;fontColor=#000000;fillColor=#ffffc0;strokeColor=#ff0000;" vertex="1" parent="1">
          <mxGeometry x="4100" y="8640" width="870" height="280" as="geometry" />
        </mxCell>
        <mxCell id="53uwz5swAD4npwzSxtdd-30" value="&lt;font style=&quot;font-size: 60px;&quot;&gt;Manage Employee Salary&lt;/font&gt;" style="rounded=1;whiteSpace=wrap;html=1;arcSize=40;fontColor=#000000;fillColor=#ffffc0;strokeColor=#ff0000;" vertex="1" parent="1">
          <mxGeometry x="4090" y="8150" width="870" height="280" as="geometry" />
        </mxCell>
        <mxCell id="53uwz5swAD4npwzSxtdd-31" value="&lt;font style=&quot;font-size: 60px;&quot;&gt;Create Customer Report&lt;/font&gt;" style="rounded=1;whiteSpace=wrap;html=1;arcSize=40;fontColor=#000000;fillColor=#ffffc0;strokeColor=#ff0000;" vertex="1" parent="1">
          <mxGeometry x="4110" y="6780" width="870" height="280" as="geometry" />
        </mxCell>
        <mxCell id="53uwz5swAD4npwzSxtdd-32" value="&lt;font style=&quot;font-size: 60px;&quot;&gt;Manage Transaction Report&lt;/font&gt;" style="rounded=1;whiteSpace=wrap;html=1;arcSize=40;fontColor=#000000;fillColor=#ffffc0;strokeColor=#ff0000;" vertex="1" parent="1">
          <mxGeometry x="4090" y="7710" width="870" height="280" as="geometry" />
        </mxCell>
        <mxCell id="53uwz5swAD4npwzSxtdd-47" style="edgeStyle=orthogonalEdgeStyle;rounded=0;orthogonalLoop=1;jettySize=auto;html=1;strokeWidth=10;jumpStyle=arc;jumpSize=29;" edge="1" parent="1" source="53uwz5swAD4npwzSxtdd-33" target="53uwz5swAD4npwzSxtdd-27">
          <mxGeometry relative="1" as="geometry">
            <Array as="points">
              <mxPoint x="4405" y="4760" />
              <mxPoint x="1375" y="4760" />
            </Array>
          </mxGeometry>
        </mxCell>
        <mxCell id="53uwz5swAD4npwzSxtdd-33" value="&lt;font style=&quot;font-size: 60px;&quot;&gt;Display AC Activities&lt;/font&gt;" style="rounded=1;whiteSpace=wrap;html=1;arcSize=40;fontColor=#000000;fillColor=#ffffc0;strokeColor=#ff0000;" vertex="1" parent="1">
          <mxGeometry x="3970" y="4280" width="870" height="280" as="geometry" />
        </mxCell>
        <mxCell id="53uwz5swAD4npwzSxtdd-36" style="edgeStyle=orthogonalEdgeStyle;rounded=0;orthogonalLoop=1;jettySize=auto;html=1;exitX=0.5;exitY=1;exitDx=0;exitDy=0;entryX=0;entryY=0.5;entryDx=0;entryDy=0;strokeWidth=10;" edge="1" parent="1" source="53uwz5swAD4npwzSxtdd-34" target="53uwz5swAD4npwzSxtdd-21">
          <mxGeometry relative="1" as="geometry">
            <Array as="points">
              <mxPoint x="1040" y="2770" />
              <mxPoint x="1040" y="3220" />
            </Array>
          </mxGeometry>
        </mxCell>
        <mxCell id="53uwz5swAD4npwzSxtdd-34" value="&lt;font style=&quot;font-size: 54px;&quot;&gt;Uname password&lt;/font&gt;" style="rounded=0;whiteSpace=wrap;html=1;fillColor=#f8cecc;strokeColor=#b85450;" vertex="1" parent="1">
          <mxGeometry x="930" y="2510" width="450" height="260" as="geometry" />
        </mxCell>
        <mxCell id="53uwz5swAD4npwzSxtdd-43" style="edgeStyle=orthogonalEdgeStyle;rounded=0;orthogonalLoop=1;jettySize=auto;html=1;exitX=0;exitY=0.5;exitDx=0;exitDy=0;strokeWidth=10;" edge="1" parent="1" source="53uwz5swAD4npwzSxtdd-37" target="53uwz5swAD4npwzSxtdd-25">
          <mxGeometry relative="1" as="geometry" />
        </mxCell>
        <mxCell id="53uwz5swAD4npwzSxtdd-45" style="edgeStyle=orthogonalEdgeStyle;rounded=0;orthogonalLoop=1;jettySize=auto;html=1;exitX=1;exitY=0.5;exitDx=0;exitDy=0;entryX=0.5;entryY=0;entryDx=0;entryDy=0;strokeWidth=10;" edge="1" parent="1" source="53uwz5swAD4npwzSxtdd-37" target="53uwz5swAD4npwzSxtdd-33">
          <mxGeometry relative="1" as="geometry" />
        </mxCell>
        <mxCell id="53uwz5swAD4npwzSxtdd-37" value="&lt;font style=&quot;font-size: 60px;&quot;&gt;If User Name And Password Matched&lt;/font&gt;" style="rhombus;whiteSpace=wrap;html=1;fillColor=#d5e8d4;strokeColor=#82b366;" vertex="1" parent="1">
          <mxGeometry x="3200" y="3040" width="950" height="880" as="geometry" />
        </mxCell>
        <mxCell id="53uwz5swAD4npwzSxtdd-39" value="&lt;font style=&quot;font-size: 72px;&quot;&gt;No&lt;/font&gt;" style="text;html=1;strokeColor=none;fillColor=none;align=center;verticalAlign=middle;whiteSpace=wrap;rounded=0;" vertex="1" parent="1">
          <mxGeometry x="2890" y="3200" width="390" height="250" as="geometry" />
        </mxCell>
        <mxCell id="53uwz5swAD4npwzSxtdd-40" value="Text" style="text;html=1;strokeColor=none;fillColor=none;align=center;verticalAlign=middle;whiteSpace=wrap;rounded=0;" vertex="1" parent="1">
          <mxGeometry x="4230" y="3100" width="390" height="240" as="geometry" />
        </mxCell>
        <mxCell id="53uwz5swAD4npwzSxtdd-42" value="&lt;font style=&quot;font-size: 72px;&quot;&gt;yes&lt;/font&gt;" style="text;html=1;strokeColor=none;fillColor=none;align=center;verticalAlign=middle;whiteSpace=wrap;rounded=0;" vertex="1" parent="1">
          <mxGeometry x="4090" y="3170" width="390" height="240" as="geometry" />
        </mxCell>
        <mxCell id="53uwz5swAD4npwzSxtdd-46" value="&lt;font style=&quot;font-size: 60px;&quot;&gt;If Activity Selected&lt;/font&gt;" style="rhombus;whiteSpace=wrap;html=1;fillColor=#d5e8d4;strokeColor=#82b366;" vertex="1" parent="1">
          <mxGeometry x="3100" y="5280" width="950" height="880" as="geometry" />
        </mxCell>
        <mxCell id="53uwz5swAD4npwzSxtdd-52" style="edgeStyle=orthogonalEdgeStyle;rounded=0;orthogonalLoop=1;jettySize=auto;html=1;strokeWidth=10;" edge="1" parent="1" target="53uwz5swAD4npwzSxtdd-51">
          <mxGeometry relative="1" as="geometry">
            <mxPoint x="3110" y="5740" as="sourcePoint" />
          </mxGeometry>
        </mxCell>
        <mxCell id="53uwz5swAD4npwzSxtdd-49" value="&lt;font style=&quot;font-size: 72px;&quot;&gt;No&lt;/font&gt;" style="text;html=1;strokeColor=none;fillColor=none;align=center;verticalAlign=middle;whiteSpace=wrap;rounded=0;" vertex="1" parent="1">
          <mxGeometry x="2780" y="5490" width="390" height="250" as="geometry" />
        </mxCell>
        <mxCell id="53uwz5swAD4npwzSxtdd-50" value="&lt;font style=&quot;font-size: 72px;&quot;&gt;yes&lt;/font&gt;" style="text;html=1;strokeColor=none;fillColor=none;align=center;verticalAlign=middle;whiteSpace=wrap;rounded=0;" vertex="1" parent="1">
          <mxGeometry x="3940" y="5430" width="390" height="240" as="geometry" />
        </mxCell>
        <mxCell id="53uwz5swAD4npwzSxtdd-51" value="&lt;font style=&quot;font-size: 60px;&quot;&gt;If AC Want Log out System&lt;/font&gt;" style="rhombus;whiteSpace=wrap;html=1;fillColor=#d5e8d4;strokeColor=#82b366;" vertex="1" parent="1">
          <mxGeometry x="2550" y="6520" width="950" height="880" as="geometry" />
        </mxCell>
        <mxCell id="53uwz5swAD4npwzSxtdd-58" style="edgeStyle=orthogonalEdgeStyle;rounded=0;orthogonalLoop=1;jettySize=auto;html=1;exitX=0.25;exitY=1;exitDx=0;exitDy=0;strokeWidth=10;jumpStyle=arc;jumpSize=29;" edge="1" parent="1" source="53uwz5swAD4npwzSxtdd-53" target="53uwz5swAD4npwzSxtdd-27">
          <mxGeometry relative="1" as="geometry">
            <Array as="points">
              <mxPoint x="3498" y="6300" />
              <mxPoint x="1375" y="6300" />
            </Array>
          </mxGeometry>
        </mxCell>
        <mxCell id="53uwz5swAD4npwzSxtdd-53" value="&lt;font style=&quot;font-size: 72px;&quot;&gt;No&lt;/font&gt;" style="text;html=1;strokeColor=none;fillColor=none;align=center;verticalAlign=middle;whiteSpace=wrap;rounded=0;" vertex="1" parent="1">
          <mxGeometry x="3400" y="6690" width="390" height="250" as="geometry" />
        </mxCell>
        <mxCell id="53uwz5swAD4npwzSxtdd-57" style="edgeStyle=orthogonalEdgeStyle;rounded=0;orthogonalLoop=1;jettySize=auto;html=1;exitX=0.75;exitY=1;exitDx=0;exitDy=0;entryX=0.5;entryY=0;entryDx=0;entryDy=0;strokeWidth=10;" edge="1" parent="1" source="53uwz5swAD4npwzSxtdd-54" target="53uwz5swAD4npwzSxtdd-55">
          <mxGeometry relative="1" as="geometry" />
        </mxCell>
        <mxCell id="53uwz5swAD4npwzSxtdd-54" value="&lt;font style=&quot;font-size: 72px;&quot;&gt;yes&lt;/font&gt;" style="text;html=1;strokeColor=none;fillColor=none;align=center;verticalAlign=middle;whiteSpace=wrap;rounded=0;" vertex="1" parent="1">
          <mxGeometry x="2270" y="6720" width="390" height="240" as="geometry" />
        </mxCell>
        <mxCell id="53uwz5swAD4npwzSxtdd-55" value="" style="ellipse;html=1;shape=endState;fillColor=#000000;strokeColor=#ff0000;" vertex="1" parent="1">
          <mxGeometry x="1360" y="7320" width="250" height="240" as="geometry" />
        </mxCell>
        <mxCell id="53uwz5swAD4npwzSxtdd-59" value="" style="rounded=0;whiteSpace=wrap;html=1;fillColor=#0A0A0A;" vertex="1" parent="1">
          <mxGeometry x="4040" y="5707.5" width="1280" height="25" as="geometry" />
        </mxCell>
        <mxCell id="53uwz5swAD4npwzSxtdd-81" style="edgeStyle=orthogonalEdgeStyle;rounded=0;orthogonalLoop=1;jettySize=auto;html=1;entryX=1;entryY=0.5;entryDx=0;entryDy=0;exitX=1;exitY=1;exitDx=0;exitDy=0;strokeWidth=10;jumpStyle=arc;jumpSize=29;" edge="1" parent="1" source="53uwz5swAD4npwzSxtdd-60" target="53uwz5swAD4npwzSxtdd-33">
          <mxGeometry relative="1" as="geometry">
            <Array as="points">
              <mxPoint x="5910" y="9338" />
              <mxPoint x="5910" y="4420" />
            </Array>
          </mxGeometry>
        </mxCell>
        <mxCell id="53uwz5swAD4npwzSxtdd-60" value="" style="rounded=0;whiteSpace=wrap;html=1;fillColor=#0A0A0A;rotation=90;" vertex="1" parent="1">
          <mxGeometry x="3497.5" y="7512.5" width="3625" height="25" as="geometry" />
        </mxCell>
        <mxCell id="53uwz5swAD4npwzSxtdd-63" value="" style="endArrow=classic;html=1;rounded=0;strokeWidth=10;" edge="1" parent="1">
          <mxGeometry width="50" height="50" relative="1" as="geometry">
            <mxPoint x="5320" y="6420" as="sourcePoint" />
            <mxPoint x="4970" y="6420" as="targetPoint" />
          </mxGeometry>
        </mxCell>
        <mxCell id="53uwz5swAD4npwzSxtdd-64" value="" style="endArrow=classic;html=1;rounded=0;strokeWidth=10;" edge="1" parent="1">
          <mxGeometry width="50" height="50" relative="1" as="geometry">
            <mxPoint x="5330" y="6910" as="sourcePoint" />
            <mxPoint x="4980" y="6910" as="targetPoint" />
          </mxGeometry>
        </mxCell>
        <mxCell id="53uwz5swAD4npwzSxtdd-65" value="" style="endArrow=classic;html=1;rounded=0;strokeWidth=10;" edge="1" parent="1">
          <mxGeometry width="50" height="50" relative="1" as="geometry">
            <mxPoint x="5320" y="7360" as="sourcePoint" />
            <mxPoint x="4970" y="7360" as="targetPoint" />
          </mxGeometry>
        </mxCell>
        <mxCell id="53uwz5swAD4npwzSxtdd-66" value="" style="endArrow=classic;html=1;rounded=0;strokeWidth=10;" edge="1" parent="1">
          <mxGeometry width="50" height="50" relative="1" as="geometry">
            <mxPoint x="5310" y="7850" as="sourcePoint" />
            <mxPoint x="4960" y="7850" as="targetPoint" />
          </mxGeometry>
        </mxCell>
        <mxCell id="53uwz5swAD4npwzSxtdd-67" value="" style="endArrow=classic;html=1;rounded=0;strokeWidth=10;" edge="1" parent="1">
          <mxGeometry width="50" height="50" relative="1" as="geometry">
            <mxPoint x="5310" y="8290" as="sourcePoint" />
            <mxPoint x="4960" y="8290" as="targetPoint" />
          </mxGeometry>
        </mxCell>
        <mxCell id="53uwz5swAD4npwzSxtdd-68" value="" style="endArrow=classic;html=1;rounded=0;strokeWidth=10;" edge="1" parent="1">
          <mxGeometry width="50" height="50" relative="1" as="geometry">
            <mxPoint x="5310" y="8790" as="sourcePoint" />
            <mxPoint x="4960" y="8790" as="targetPoint" />
          </mxGeometry>
        </mxCell>
        <mxCell id="53uwz5swAD4npwzSxtdd-69" value="" style="endArrow=classic;html=1;rounded=0;strokeWidth=10;" edge="1" parent="1">
          <mxGeometry width="50" height="50" relative="1" as="geometry">
            <mxPoint x="5320" y="9330" as="sourcePoint" />
            <mxPoint x="4970" y="9330" as="targetPoint" />
          </mxGeometry>
        </mxCell>
        <mxCell id="53uwz5swAD4npwzSxtdd-70" value="&lt;font style=&quot;font-size: 60px;&quot;&gt;Manage Incone&lt;/font&gt;" style="rounded=1;whiteSpace=wrap;html=1;arcSize=40;fontColor=#000000;fillColor=#ffffc0;strokeColor=#ff0000;" vertex="1" parent="1">
          <mxGeometry x="4100" y="9180" width="870" height="280" as="geometry" />
        </mxCell>
        <mxCell id="53uwz5swAD4npwzSxtdd-79" style="edgeStyle=orthogonalEdgeStyle;rounded=0;orthogonalLoop=1;jettySize=auto;html=1;strokeWidth=10;" edge="1" parent="1" source="53uwz5swAD4npwzSxtdd-71" target="53uwz5swAD4npwzSxtdd-78">
          <mxGeometry relative="1" as="geometry" />
        </mxCell>
        <mxCell id="53uwz5swAD4npwzSxtdd-71" value="" style="rounded=0;whiteSpace=wrap;html=1;fillColor=#0A0A0A;rotation=90;" vertex="1" parent="1">
          <mxGeometry x="2715" y="8825" width="1390" height="25" as="geometry" />
        </mxCell>
        <mxCell id="53uwz5swAD4npwzSxtdd-75" style="edgeStyle=orthogonalEdgeStyle;rounded=0;orthogonalLoop=1;jettySize=auto;html=1;exitX=0;exitY=0.5;exitDx=0;exitDy=0;entryX=0.459;entryY=-0.5;entryDx=0;entryDy=0;entryPerimeter=0;strokeWidth=10;" edge="1" parent="1" source="53uwz5swAD4npwzSxtdd-29" target="53uwz5swAD4npwzSxtdd-71">
          <mxGeometry relative="1" as="geometry" />
        </mxCell>
        <mxCell id="53uwz5swAD4npwzSxtdd-76" style="edgeStyle=orthogonalEdgeStyle;rounded=0;orthogonalLoop=1;jettySize=auto;html=1;exitX=0;exitY=0.5;exitDx=0;exitDy=0;entryX=0.106;entryY=1.5;entryDx=0;entryDy=0;entryPerimeter=0;strokeWidth=10;" edge="1" parent="1" source="53uwz5swAD4npwzSxtdd-30" target="53uwz5swAD4npwzSxtdd-71">
          <mxGeometry relative="1" as="geometry" />
        </mxCell>
        <mxCell id="53uwz5swAD4npwzSxtdd-77" style="edgeStyle=orthogonalEdgeStyle;rounded=0;orthogonalLoop=1;jettySize=auto;html=1;exitX=0;exitY=0.5;exitDx=0;exitDy=0;entryX=0.844;entryY=1.7;entryDx=0;entryDy=0;entryPerimeter=0;strokeWidth=10;" edge="1" parent="1" source="53uwz5swAD4npwzSxtdd-70" target="53uwz5swAD4npwzSxtdd-71">
          <mxGeometry relative="1" as="geometry" />
        </mxCell>
        <mxCell id="53uwz5swAD4npwzSxtdd-80" style="edgeStyle=orthogonalEdgeStyle;rounded=0;orthogonalLoop=1;jettySize=auto;html=1;exitX=1;exitY=0.5;exitDx=0;exitDy=0;entryX=0.5;entryY=0;entryDx=0;entryDy=0;strokeWidth=10;jumpStyle=arc;jumpSize=29;" edge="1" parent="1" source="53uwz5swAD4npwzSxtdd-78" target="53uwz5swAD4npwzSxtdd-60">
          <mxGeometry relative="1" as="geometry">
            <Array as="points">
              <mxPoint x="5790" y="9880" />
              <mxPoint x="5790" y="7525" />
            </Array>
          </mxGeometry>
        </mxCell>
        <mxCell id="53uwz5swAD4npwzSxtdd-78" value="&lt;font style=&quot;font-size: 60px;&quot;&gt;Calculate Profit Or Loss&lt;/font&gt;" style="rounded=1;whiteSpace=wrap;html=1;arcSize=40;fontColor=#000000;fillColor=#ffffc0;strokeColor=#ff0000;" vertex="1" parent="1">
          <mxGeometry x="2370" y="9740" width="870" height="280" as="geometry" />
        </mxCell>
      </root>
    </mxGraphModel>
  </diagram>
</mxfile>
